<?xml version="1.0" encoding="utf-8"?>
<!-- Generator: Adobe Illustrator 15.1.0, SVG Export Plug-In  -->
<!DOCTYPE svg PUBLIC "-//W3C//DTD SVG 1.1//EN" "http://www.w3.org/Graphics/SVG/1.1/DTD/svg11.dtd" [
	<!ENTITY ns_flows "http://ns.adobe.com/Flows/1.0/">
]>
<svg version="1.1"
	 xmlns="http://www.w3.org/2000/svg" xmlns:xlink="http://www.w3.org/1999/xlink" xmlns:a="http://ns.adobe.com/AdobeSVGViewerExtensions/3.0/"
	 x="0px" y="0px" width="200px" height="200px" viewBox="-5 -3.959 200 200" enable-background="new -5 -3.959 200 200"
	 xml:space="preserve">
<defs>
</defs>
<path display="none" d="M140,161.785c0,2.484-2.238,4.5-5,4.5H55c-2.761,0-5-2.016-5-4.5l-5-81c0-2.485,2.239-4.5,5-4.5h90
	c2.762,0,5,2.015,5,4.5L140,161.785z"/>
<path display="none" d="M161.06,89.821c1.92,1.921,1.922,5.034,0,6.954H28.939c-1.919-1.92-1.919-5.033,0-6.954l62.585-62.584
	c1.92-1.92,5.032-1.92,6.952,0L161.06,89.821z"/>
<g>
	<g>
		<path fill="#EF4529" d="M187.973,90.102L99.898,2.027c-2.704-2.703-7.08-2.703-9.796,0L2.027,90.102
			c-2.702,2.703-2.702,7.08,0,9.781h23.997l12.681,85.866c0,3.505,3.153,6.333,7.037,6.333h98.518c3.884,0,7.037-2.828,7.037-6.333
			l12.68-85.866h23.997C190.676,97.182,190.676,92.804,187.973,90.102z M95,155.855c-5.83,0-10.556-4.726-10.556-10.556
			c0-5.829,4.726-10.555,10.556-10.555c5.83,0,10.556,4.726,10.556,10.555C105.556,151.13,100.83,155.855,95,155.855z M95,120.67
			c-17.488,0-31.667-14.177-31.667-31.667c0-17.488,14.178-31.666,31.667-31.666c17.49,0,31.667,14.178,31.667,31.666
			C126.667,106.493,112.49,120.67,95,120.67z"/>
	</g>
</g>
</svg>
